<?xml version="1.0" encoding="UTF-8"?><svg id="Capa_1" xmlns="http://www.w3.org/2000/svg" width="128" height="128" viewBox="0 0 128 128"><defs><style>.cls-1{stroke-linecap:square;stroke-width:.5px;}.cls-1,.cls-2{stroke:#000;stroke-miterlimit:10;}.cls-2{fill:none;stroke-width:.88px;}</style></defs><polyline class="cls-2" points="90.08 94.23 2.51 2.97 127.33 23.44"/><path class="cls-1" d="M47.53,35.31l10.86-13.99,1.31.61-3.57,17.41-1.38-.65,1.15-5.24-3.84-1.8-3.23,4.27-1.29-.6ZM53.19,30.13l3.12,1.46,1.07-4.78c.32-1.45.61-2.64.87-3.55-.59.95-1.22,1.87-1.89,2.76l-3.16,4.12Z"/><path class="cls-1" d="M59.44,40.89l7.33-15.65,4.08,1.91c.82.38,1.38.82,1.67,1.3.29.48.4,1.14.33,1.97-.08.83-.32,1.68-.72,2.54-.52,1.11-1.17,1.95-1.95,2.51-.78.56-1.66.74-2.64.54.2.41.32.79.37,1.12.09.72.11,1.57.03,2.55l-.4,5.01-1.53-.72.31-3.82c.08-1.11.13-1.96.13-2.57,0-.61-.04-1.05-.13-1.34-.09-.28-.21-.51-.36-.68-.12-.11-.33-.25-.64-.39l-1.41-.66-3.25,6.95-1.22-.57ZM64.75,32.71l2.61,1.22c.55.26,1.04.37,1.44.32.4-.05.79-.25,1.15-.6.36-.35.66-.78.9-1.29.35-.74.47-1.42.38-2.05-.09-.62-.48-1.1-1.16-1.42l-2.91-1.36-2.42,5.18Z"/><path class="cls-1" d="M71.02,46.31l7.33-15.65,4.08,1.91c.82.38,1.38.82,1.67,1.3.3.48.4,1.14.33,1.97s-.32,1.68-.72,2.54c-.52,1.11-1.17,1.95-1.95,2.51-.78.56-1.66.74-2.64.54.2.41.32.79.37,1.12.09.72.11,1.57.03,2.55l-.4,5.01-1.53-.72.31-3.82c.08-1.11.13-1.96.13-2.57,0-.6-.04-1.05-.13-1.33-.09-.28-.21-.51-.36-.68-.12-.11-.33-.25-.64-.39l-1.41-.66-3.25,6.95-1.22-.57ZM76.33,38.14l2.61,1.22c.56.26,1.04.37,1.44.32.4-.05.79-.25,1.15-.6.36-.35.66-.78.9-1.29.35-.74.47-1.42.38-2.05-.09-.62-.48-1.1-1.16-1.42l-2.91-1.36-2.42,5.18Z"/><path class="cls-1" d="M85.79,43.94c1.22-2.6,2.58-4.44,4.09-5.52,1.51-1.09,2.91-1.32,4.21-.72.85.4,1.45,1.1,1.81,2.11.36,1.01.43,2.21.21,3.62-.22,1.4-.7,2.88-1.43,4.45-.74,1.59-1.6,2.92-2.56,3.99-.96,1.08-1.94,1.77-2.93,2.09-.99.32-1.89.29-2.68-.08-.86-.41-1.47-1.12-1.82-2.15-.35-1.03-.41-2.24-.18-3.64.23-1.4.66-2.78,1.3-4.15ZM87.02,44.55c-.88,1.89-1.28,3.51-1.19,4.87.09,1.36.58,2.26,1.48,2.68.92.43,1.93.23,3.03-.58,1.11-.82,2.13-2.24,3.07-4.25.6-1.27.99-2.44,1.18-3.51.19-1.07.17-1.98-.08-2.73s-.67-1.27-1.27-1.55c-.86-.4-1.84-.25-2.93.47-1.09.72-2.19,2.25-3.29,4.61Z"/><path class="cls-1" d="M96.49,58.24l4.89-16.79,1.25.58-3.41,10.91c-.35,1.15-.72,2.27-1.11,3.38,1.02-1.56,1.61-2.46,1.77-2.7l6.7-9.75,1.47.69-2.39,8.54c-.59,2.12-1.22,4.08-1.88,5.87.58-.93,1.26-2,2.05-3.19l6.15-9.38,1.22.57-9.85,14.46-1.17-.55,3.65-12.83c.3-1.07.49-1.73.57-1.97-.43.67-.81,1.24-1.13,1.71l-7.53,11.01-1.24-.58Z"/></svg>